# xmcd
#
# Track frame offsets: 
#        150
#        11439
#        28913
#        42268
#        58465
#        71760
#        81900
#        92878
#        111944
#        122483
#        134885
#
# Disc length: 1934 seconds
#
# Revision: 0
# Processed by: cddbd v1.5.2PL0 Copyright (c) Steve Scherf et al.
# Submitted via: ExactAudioCopy v0.99pb5
#
DISCID=a3078c0b
DTITLE=The Peanut Butter Conspiracy  - The Peanut Butter Conspiracy  F
DTITLE=LAC
DYEAR=1900
DGENRE=
TTITLE0=It's a Happening Thing
TTITLE1=Then Came Love
TTITLE2=Twice Is Life
TTITLE3=Second Hand Man
TTITLE4=You Can't Be Found
TTITLE5=Why Did I Get So High
TTITLE6=Dark on You Now
TTITLE7=The Market Place
TTITLE8=You Should Know
TTITLE9=The Most Up Till Now
TTITLE10=You Took Too Much
EXTD=
EXTT0=
EXTT1=
EXTT2=
EXTT3=
EXTT4=
EXTT5=
EXTT6=
EXTT7=
EXTT8=
EXTT9=
EXTT10=
PLAYORDER=
